<svg xmlns="http://www.w3.org/2000/svg" viewBox="0 0 60 60">
  <rect width="60" height="60" rx="12" fill="#05070f"/>
  <defs>
    <linearGradient id="jlpa" x1="0" y1="0" x2="1" y2="1">
      <stop offset="0" stop-color="#4de1ff"/><stop offset=".55" stop-color="#7c5cff"/><stop offset="1" stop-color="#38ffce"/>
    </linearGradient>
  </defs>
  <g transform="translate(6 6) scale(0.8)" stroke="url(#jlpa)" stroke-width="1.3" stroke-linejoin="round" fill="none" opacity=".9">
    <polygon points="30,8 45.56,14.44 52,30 45.56,45.56 30,52 14.44,45.56 8,30 14.44,14.44"/>
    <path d="M30 30L30 8M30 30L45.56 14.44M30 30L52 30M30 30L45.56 45.56M30 30L30 52M30 30L14.44 45.56M30 30L8 30M30 30L14.44 14.44"/>
    <path d="M30 8L52 30M52 30L30 52M30 52L8 30M8 30L30 8" opacity=".4"/>
  </g>
  <g transform="translate(6 6) scale(0.8)" fill="#9fe8ff">
    <circle cx="30" cy="8" r="2"/><circle cx="45.56" cy="14.44" r="2"/><circle cx="52" cy="30" r="2"/><circle cx="45.56" cy="45.56" r="2"/><circle cx="30" cy="52" r="2"/><circle cx="14.44" cy="45.56" r="2"/><circle cx="8" cy="30" r="2"/><circle cx="14.44" cy="14.44" r="2"/>
  </g>
  <circle cx="30" cy="30" r="3.4" fill="#4de1ff"/>
</svg>
